<svg width="451" height="274" viewBox="0 0 451 274" fill="none" xmlns="http://www.w3.org/2000/svg">
<path d="M450.5 193.782C425.5 193.782 401.06 192.953 377.9 200.259C367.22 203.647 356.54 208.306 347.3 214.129C338.54 219.741 331.1 227.471 320.66 230.753C310.82 233.824 301.1 231.706 291.98 227.894C275.06 220.8 258.5 212.118 239.66 219.106C222.62 225.353 211.58 240.388 199.82 252.247C189.5 262.624 176.66 272.259 160.34 273C129.74 274.482 112.94 247.906 93.74 231.388C72.14 212.859 50.1571 199.624 17.5 195.782C0.499939 193.782 0.5 193.782 0.5 193.782V0.782318H450.5V193.782Z" fill="url(#paint0_linear_26_2)"/>
<path d="M450.5 193.782C425.5 193.782 401.06 192.953 377.9 200.259C367.22 203.647 356.54 208.306 347.3 214.129C338.54 219.741 331.1 227.471 320.66 230.753C310.82 233.824 301.1 231.706 291.98 227.894C275.06 220.8 258.5 212.118 239.66 219.106C222.62 225.353 211.58 240.388 199.82 252.247C189.5 262.624 176.66 272.259 160.34 273C129.74 274.482 112.94 247.906 93.74 231.388C72.14 212.859 50.1571 199.624 17.5 195.782C0.499939 193.782 0.5 193.782 0.5 193.782V0.782318H450.5V193.782Z" fill="url(#paint1_linear_26_2)"/>
<defs>
<linearGradient id="paint0_linear_26_2" x1="29" y1="452.139" x2="479" y2="452.139" gradientUnits="userSpaceOnUse">
<stop offset="1" stop-color="#FF6A00"/>
<stop stop-color="#EE0979"/>
</linearGradient>
<linearGradient id="paint1_linear_26_2" x1="29" y1="452.139" x2="479" y2="452.139" gradientUnits="userSpaceOnUse">
<stop offset="1" stop-color="#FF6A00"/>
<stop stop-color="#EE0979"/>
</linearGradient>
</defs>
</svg>
